<?xml version="1.0" standalone="no"?>
<!DOCTYPE svg PUBLIC "-//W3C//DTD SVG 20010904//EN"
 "http://www.w3.org/TR/2001/REC-SVG-20010904/DTD/svg10.dtd">
<svg version="1.0" xmlns="http://www.w3.org/2000/svg"
 width="396.000000pt" height="396.000000pt" viewBox="0 0 396.000000 396.000000"
 preserveAspectRatio="xMidYMid meet">
<metadata>
Created by potrace 1.11, written by Peter Selinger 2001-2013
</metadata>
<g transform="translate(0.000000,396.000000) scale(0.100000,-0.100000)"
fill="#000000" stroke="none">
<path d="M1858 3955 c-2 -2 -34 -5 -73 -9 -60 -5 -120 -14 -200 -30 -380 -78
-744 -276 -1010 -549 -369 -379 -572 -880 -568 -1397 0 -80 10 -231 17 -266 2
-12 7 -37 10 -55 13 -74 18 -98 42 -189 167 -626 660 -1149 1276 -1354 131
-44 233 -69 333 -81 22 -3 51 -8 65 -11 14 -3 102 -7 195 -8 149 -3 299 8 398
28 15 3 39 8 55 11 78 16 243 66 299 91 17 8 34 14 38 14 9 0 192 91 252 126
232 135 478 367 630 594 136 203 224 402 283 640 43 176 54 267 54 465 0 166
-8 265 -31 370 -8 39 -17 84 -20 100 -11 70 -97 304 -149 407 -227 452 -593
788 -1059 971 -77 30 -206 70 -263 82 -9 2 -37 8 -62 13 -44 10 -100 18 -190
29 -46 5 -318 12 -322 8z m1167 -723 c121 -56 195 -161 189 -267 -4 -64 -23
-106 -72 -157 -20 -21 -31 -38 -25 -38 22 0 105 -85 129 -132 58 -114 25 -275
-75 -365 -40 -36 -114 -72 -183 -88 -76 -17 -808 -22 -808 -5 0 5 3 10 8 10
15 0 60 46 78 80 17 32 19 64 20 440 1 438 0 445 -54 503 -14 15 -32 27 -39
27 -7 0 -13 5 -13 11 0 7 122 9 398 7 389 -3 398 -4 447 -26z m-1892 -195
c111 -164 143 -205 152 -195 7 7 72 102 145 211 l132 197 209 0 c115 0 209 -3
209 -7 -1 -5 -15 -17 -33 -28 -18 -11 -41 -38 -52 -60 -19 -38 -20 -61 -21
-435 -1 -455 1 -473 66 -518 22 -15 39 -30 40 -33 0 -10 -519 -8 -525 2 -4 5
-2 9 4 9 21 0 80 62 91 95 11 32 18 470 8 480 -3 3 -67 -83 -143 -191 -111
-157 -141 -193 -149 -181 -6 8 -69 96 -141 196 l-130 182 -3 -223 c-3 -260 1
-282 66 -338 l44 -37 -266 -1 c-146 -1 -266 3 -266 7 0 4 11 13 25 19 13 6 37
30 52 53 l28 43 1 405 c2 458 1 462 -68 524 l-43 37 214 -2 213 -3 141 -208z
m1814 -1048 c78 -42 70 -161 -14 -195 -71 -30 -157 36 -147 113 10 79 90 120
161 82z m-413 -23 c69 -29 113 -131 86 -201 -5 -12 -11 -35 -13 -51 -3 -16
-24 -103 -46 -194 -88 -354 -89 -356 -112 -333 -9 9 -9 23 -2 52 l10 39 -108
27 c-69 17 -114 34 -126 47 -20 23 -22 73 -4 136 14 48 7 48 131 17 96 -24
118 -27 125 -15 8 12 -15 21 -130 50 -50 13 -93 26 -98 29 -13 12 68 316 92
348 46 58 125 78 195 49z m-1267 -91 c96 -15 192 -86 218 -161 15 -45 11 -114
-10 -154 -47 -92 -214 -107 -246 -23 -5 14 -8 26 -7 27 30 12 43 27 43 51 0
40 -43 70 -100 68 -52 -2 -79 -15 -100 -47 -59 -90 14 -185 151 -195 17 -1 11
-73 -7 -81 -74 -35 -92 -48 -110 -76 -63 -102 -18 -233 99 -291 72 -35 192
-38 262 -7 96 44 148 130 136 226 -11 83 -15 86 -83 57 -65 -28 -78 -52 -43
-79 21 -16 22 -18 6 -48 -21 -41 -53 -61 -102 -66 -69 -5 -139 41 -150 100
-14 77 37 140 173 215 87 48 155 120 173 183 16 60 9 142 -18 196 -20 41 -20
44 -4 56 27 20 106 36 147 30 110 -18 176 -108 171 -232 -5 -93 -43 -161 -134
-236 l-33 -28 24 -32 c62 -82 79 -202 45 -305 -62 -183 -251 -286 -512 -278
-173 5 -315 57 -411 150 -90 88 -122 198 -90 311 17 59 79 135 125 154 l31 13
-41 38 c-51 48 -79 110 -80 175 -1 208 206 333 477 289z m1548 -103 c36 -22
43 -36 94 -172 l39 -105 97 -35 c70 -25 100 -41 105 -55 10 -26 -5 -54 -35
-65 -16 -6 -45 -45 -83 -110 l-60 -102 24 -23 c28 -28 26 -10 29 -215 2 -206
-7 -230 -85 -230 -18 0 -35 9 -48 25 -17 22 -19 39 -18 146 2 141 9 143 -96
-36 -82 -140 -93 -154 -109 -138 -12 12 0 35 147 281 24 40 44 79 44 86 0 8
-10 20 -22 29 -13 8 -34 25 -48 37 -42 38 -90 73 -94 69 -2 -2 -12 -40 -24
-85 -17 -69 -35 -105 -122 -240 -56 -87 -109 -165 -118 -171 -40 -31 -107 -2
-117 52 -5 25 6 49 70 150 42 66 84 131 94 145 17 24 92 308 94 356 0 11 197
134 214 134 5 0 16 -15 24 -34 13 -29 14 -42 1 -102 l-14 -69 72 -68 c39 -38
73 -67 74 -65 2 1 28 44 58 95 l56 91 -96 39 -96 38 -44 89 c-32 66 -46 86
-54 78 -8 -8 -8 -18 -1 -34 9 -21 4 -26 -81 -75 -49 -29 -91 -51 -93 -49 -2 1
6 36 16 77 11 41 22 85 24 99 10 53 30 115 43 134 32 47 90 58 139 28z"/>
<path d="M2604 3008 c-4 -7 -7 -98 -5 -155 1 -22 4 -23 110 -23 59 0 122 5
140 11 64 23 74 115 16 153 -17 12 -55 16 -140 18 -64 2 -119 0 -121 -4z"/>
<path d="M2630 2642 l-35 -3 2 -87 c1 -48 2 -97 2 -109 1 -23 3 -23 124 -23
67 0 138 5 158 10 107 30 111 165 5 200 -31 10 -191 18 -256 12z"/>
<path d="M2375 1817 c-15 -45 -32 -128 -27 -131 9 -5 89 -27 121 -33 13 -2 28
-5 34 -6 10 -2 27 42 41 111 6 25 4 32 -7 32 -9 0 -20 -20 -29 -52 -10 -33
-20 -52 -29 -52 -38 4 -85 16 -92 23 -5 5 -2 31 6 59 14 44 14 51 1 56 -8 3
-17 0 -19 -7z"/>
<path d="M1357 1776 c24 -27 47 -63 51 -80 8 -27 8 -42 3 -88 -3 -22 -48 -48
-83 -48 -27 0 -38 -4 -38 -15 0 -26 73 -24 110 3 38 28 51 61 47 115 -5 54
-39 104 -97 140 l-35 22 42 -49z"/>
<path d="M1750 1788 c0 -3 8 -20 17 -39 9 -18 18 -59 19 -90 4 -80 -30 -148
-112 -226 l-65 -62 35 -53 c85 -128 79 -275 -16 -369 -56 -56 -98 -80 -183
-104 -62 -18 -209 -25 -280 -12 -88 15 -203 51 -230 71 -26 20 -41 20 -24 0 7
-9 39 -29 72 -45 249 -126 590 -76 708 103 70 105 61 272 -21 376 l-21 26 54
51 c102 94 139 203 103 299 -14 36 -56 92 -56 74z"/>
<path d="M1088 1753 c-89 -26 -133 -110 -119 -230 2 -16 49 -71 72 -83 15 -8
17 -7 13 5 -4 8 -9 15 -14 15 -14 0 -41 76 -42 116 -1 81 57 144 142 152 31 3
57 -1 78 -12 37 -19 42 -8 10 21 -29 26 -85 33 -140 16z"/>
<path d="M1153 1397 c-17 -7 -52 -26 -76 -43 -126 -89 -112 -279 25 -358 l33
-19 -32 34 c-65 70 -92 162 -70 235 15 48 70 110 117 130 22 10 40 21 40 26 0
4 -1 8 -2 7 -2 0 -17 -6 -35 -12z"/>
<path d="M1465 1326 c-73 -34 -95 -59 -95 -106 0 -21 5 -42 11 -46 26 -16 -21
-24 -60 -10 -47 16 -53 7 -14 -24 27 -21 71 -23 116 -5 18 7 24 35 7 35 -16 0
-31 39 -24 65 7 28 93 85 128 85 15 0 16 3 6 15 -16 19 -16 19 -75 -9z"/>
</g>
</svg>
