<svg version="1" xmlns="http://www.w3.org/2000/svg" width="3796" height="3796" viewBox="0 0 2847.000000 2847.000000"><path d="M1382.5 170.6c-51.5 2.6-77 4.5-109.9 8.5-233.1 27.8-452.2 120-636.6 268-69.4 55.6-137.3 123.5-192.9 192.9-157.6 196.3-251.4 430.9-272.6 681-3.2 38.3-3.9 58-4 105.5 0 49.9.9 71.6 4.6 112.9 17.3 194.3 77.7 377.6 179.4 544.1 80.7 132.2 187.1 249.8 312.5 345.6 178.3 136.2 394.3 222.8 618.5 247.9 51.6 5.7 84.1 7.5 142 7.5 48.6 0 67.6-.8 106.5-4 250.1-21.2 484.7-115 681-272.6 69.4-55.6 137.3-123.5 192.9-192.9 148-184.4 240.2-403.5 268-636.6 6.4-53.1 8.6-92.4 8.6-151.9-.1-57.9-2-93-8-145-19.4-167.7-72.4-329.8-155.8-476-78.7-138-183.6-260.7-308.4-360.6-117.2-93.8-251.8-166.6-393.7-212.8-101.9-33.2-200.8-52.1-313.1-59.7-20.4-1.4-102.7-2.6-119-1.8zM2014 614.8c36.6 5.1 59 11.4 85.5 24.1 41.3 19.8 72.3 49.2 90.7 86.1 15.1 30.3 21.1 68.4 15.4 98.2-6.5 33.8-28.4 67.7-58 90-4.5 3.3-8.2 6.3-8.4 6.7-.1.3 1.9 1.7 4.5 3.1 27.1 14 55.6 40.6 73.6 68.6 11.3 17.5 20.5 40.1 24.8 60.5 5.6 27.7 3.4 66.9-5.7 97.7-4.2 14.5-6.3 19.8-13.1 33.7-30.9 62.8-92.8 102.9-180.5 116.9-31.5 5.1-24.2 4.9-267.5 5.3l-227.3.4v-9.7l5.8-2.8c15.9-7.8 33.4-22.5 42.1-35.5 12.7-18.7 19.1-39.5 21-67.5.9-14.3 1-448.4 0-463.6-1.9-30.3-10-55.7-23.8-74.2-8.8-11.8-27.2-24.7-41.2-28.9-3.8-1.2-3.9-1.3-3.9-6.1v-4.9l228.8.4c168.4.3 230.9.7 237.2 1.5zM692.2 620h99.6l40.8 60.2c22.4 33.2 44.5 65.7 49 72.3 11.8 17.4 81.7 120.6 87.7 129.7 2.9 4.3 5.6 7.6 6.1 7.5 1-.3 3.3-3.8 94-139.2 73.1-109.1 85.7-127.8 87-129.2 1.5-1.5 265.4-2.3 266-.8.2.5.2 2.1 0 3.5-.1 1.4-.3 3-.3 3.7-.1.7-3 2.6-6.6 4.3-17.2 8.2-32.6 21.5-42.3 36.3-8.2 12.6-14.7 31.8-17.4 52-2 14-1.9 476 0 490.2 5.2 38.2 19.7 63.5 46.4 80.9 4.8 3.1 11.2 6.8 14.3 8.1 3 1.4 5.6 3 5.6 3.7.1.7.2 3 .3 5l.2 3.8h-334.1l.2-3.7c.1-2.1.2-4.3.2-4.9.1-.7 3.7-3 8.1-5.2 4.3-2.2 10.5-5.7 13.7-7.8 8.3-5.4 23.1-20.7 28.1-29 9.1-15.2 15-35.4 17.1-58.4.7-7.3 1.1-59.7 1.1-145 0-114.8-.2-133.2-1.4-132-.8.8-20.7 28.7-44.3 62-115.1 162.4-135.5 191-136.1 190.9-.6 0-35.2-47.7-120.7-166.4-6-8.4-22.5-31.2-36.5-50.6l-25.5-35.3-.3 14c-.1 7.6-.1 71 .1 140.9.3 124.9.4 127.2 2.5 138 7.5 38.7 25.8 63.6 58.5 79.6l6.7 3.3v9.6H526v-9.6l7.2-3.4c35.2-16.8 54.3-45.5 60-90 1.9-15.4 1.9-471.5 0-487-5.6-44.1-24.5-72.8-59-89.5l-8.2-4V619l33.3.5c18.2.2 78 .4 132.9.5zm1327.3 793.6c31 7.5 52.5 35.1 52.5 67.4 0 38.7-30.2 69-69 69.1-17.8.1-34.1-6-46.5-17.3-16.5-15.1-24.3-33.7-23.2-55.3.9-18.5 7-32 20.6-45.5 18-17.8 41-24.3 65.6-18.4zm-273 14c20 2.6 42.3 13.9 57.6 29.3 13.6 13.8 22 28.6 27 48.1 2.5 9.5 3.5 28.3 2 37.5-2.1 13.8-93.1 382.9-95 385.5-5.9 8.1-21.3 5.1-24-4.8-.8-2.8 0-7.4 4.9-27 3.2-13.1 5.6-24 5.2-24.3-.4-.3-23.6-5.9-51.7-12.3-28-6.4-55.5-13.1-61-14.7-39.3-12-53.1-33.1-45.5-69.7 4.7-23.1 15.3-64.2 16.5-64.2 1 0 143.8 35.1 148.5 36.5 1.2.4 2.1-1.7 4.1-9.9l2.6-10.4-67.6-16.7c-37.2-9.2-71.3-17.6-75.8-18.7-5-1.2-8-2.4-7.7-3.2.4-1.1 6.9-27.9 22.3-91.6 26-107.4 24.5-101.9 31.5-115.7 9.2-18.4 27-35.4 46.6-44.7 18.8-8.9 38-11.8 59.5-9zM932 1489c62.5 5.3 113.2 25.7 145.6 58.8 34 34.6 45.4 82.9 30.7 129.6-9 28.6-29.5 50.4-56.9 60.7-13.5 5-22.2 6.4-40.4 6.4-14.2 0-17.6-.3-24.4-2.3-25.9-7.5-43.4-25.4-46.1-47.3l-.7-5.6 5.5-.6c10.1-1 19.8-7.9 23.8-17 3.2-7.4 3.1-17.2-.4-25-8.7-19.3-33.7-31.6-64.4-31.8-6.5 0-15.2.7-19.3 1.5-35.5 6.8-58.1 34.9-58.1 72.1 0 5 .5 11.2 1 13.8 5.9 25.9 28.1 46.4 63.5 58.2 11.1 3.7 29.1 7.2 39.6 7.6 3.6.2 7.5.5 8.8.7l2.2.4-.2 26.7-.3 26.6-7 .6c-27 2.5-56.1 20.7-72 44.9-18 27.5-23.8 63.2-15.5 96 14.5 57.1 65.4 98.1 133.6 107.5 14.2 2 42.8 2.3 56.4.6 53.2-6.6 93-28.1 118.6-63.8 27.6-38.5 32.5-89 13.2-135.6-2.3-5.6-4.6-9.6-5.2-9.4-.6.3-7.2 3.1-14.6 6.2-7.4 3.2-21.2 8.6-30.7 12.1-9.5 3.4-18.5 7-20.1 7.8-11.9 6.1-17.5 20.2-12.2 30.5 3.3 6.6 9.9 10.6 19.5 11.7l5.1.6-.8 6c-1.6 11.9-7.3 25.6-14.6 34.8-14.6 18.5-35.9 28-63.2 28.2-21.3.1-36-3.2-51.4-11.6-18.7-10.1-33-28.2-38.1-48.1-4.9-19.2-1.8-43.3 7.8-60.5 14.8-26.5 39.2-45.4 103.5-80.4 28.9-15.8 48.7-30 66.7-48.1 29.1-29.2 43.7-60.2 47.6-101 3.6-38.7-9.3-88-29.7-113.1l-3.3-4.1 4.6-3.9c13.2-11.2 32.8-19.5 55.9-23.4 15.1-2.6 37.9-2.9 50.9-.5 48.3 8.6 86.5 45 99.1 94.3 13.5 52.9 1.8 109.7-31.9 154.3-17.1 22.9-35.9 40.3-68.2 63.5l-2.9 2 7.6 8.7c24.6 28.2 40.2 62.9 46.3 103.2 1.9 12.7 2.7 42.8 1.5 56.1-3.6 39-17.4 75.1-40.9 107.4-51.6 71-144.2 113.1-257.1 116.8-98.7 3.3-187.5-17.2-253.4-58.6-32.8-20.7-63.4-50.5-81.6-79.6-34.4-55.3-39.2-123.2-12.9-179.5 16-34.1 44.6-62.6 80.7-80.3l12.3-6-7.5-4.3c-43.7-24.9-72.6-76-72.6-128.4 0-71.3 41.9-132.8 111.5-163.9 44.9-20 98.2-28 155.5-23.2zm1000.3 60.6c21 5.3 41.2 22.1 51.5 43 1.6 3.2 14.1 36.6 27.8 74.1l24.8 68.2 4.1 1.5c2.2.8 28.3 10.1 58 20.6 29.7 10.5 55.7 20.2 57.7 21.5 15.3 10 16.2 32.3 1.9 46.6-6.3 6.2-11.7 8.6-21.8 9.6l-6.1.6-38.1 65.3c-21 35.9-38.1 65.6-38.1 66.1s4.5 5 10 10.2c5.5 5.1 11.3 11.2 12.9 13.4 4.4 6.5 7.1 15.1 8.1 25.6.5 5.3 1 54.8 1.1 110.2l.2 100.5-2.2 6.7c-4.3 12.8-16 24.8-28.9 29.8-8 3-21.6 3.7-30.2 1.5-17.3-4.5-26.6-12.5-33.3-28.9-2.2-5.1-2.2-6.3-2.7-81.5l-.5-76.2-54.9 94.2c-30.2 51.9-56.2 95.5-57.8 97-2.3 2.3-3.7 2.8-7.9 2.8-4.5 0-5.5-.4-8.5-3.4-2.9-2.9-3.4-4.1-3.4-8.1 0-4.3 2.7-9.2 37.1-68.3 20.4-35 40-68.4 43.4-74.2 25.3-42.7 49.6-85.3 48.8-86-1-1-98.4-80.5-104-84.9-2.4-1.9-4.5-3.2-4.7-3-.3.3-5.7 22.4-12.1 49.3-10.4 43.6-12.1 49.8-16.4 59-4.3 9.2-18.6 31.8-109.6 174.1-18.2 28.5-21.2 32.5-28.6 37.4-8.5 5.7-14.7 7.5-25.9 7.5-7.4.1-11-.5-16.3-2.3-13.4-4.5-23.8-13.7-30-26.1-3.1-6.4-3.2-6.8-3.2-20 0-10.6.4-14.4 1.8-17.8.9-2.4 27.1-43.8 58.1-92.1l56.3-87.9 25.7-107.8c14.2-59.4 25.9-108.6 26.2-109.4.2-.8 2.1-2.4 4.1-3.6 2.1-1.1 31.7-18.3 65.9-38.2 34.1-19.9 62.7-36.4 63.6-36.7 1.1-.5 4 4.8 12.6 23.3l11.1 23.9-9.3 42.4-9.4 42.4 6.2 6c5.1 5.1 32.2 30.6 37.6 35.5.9.8 5 4.6 9.1 8.5 37.7 35.6 40.1 37.7 41.2 36.6.4-.4 16.5-27.7 35.7-60.7 24.3-41.5 34.6-60 33.7-60.5-.6-.4-25.7-10-55.7-21.4-30-11.4-55.8-21.5-57.5-22.5-7-4.4-9.1-8.1-32-57.5-12.5-27-23.8-50.1-25.2-51.5-1.8-2-3.3-2.5-6.9-2.5-3.9 0-5 .5-7.5 3.3-1.9 2.1-2.9 4.3-2.9 6.4 0 1.7 2.6 8.7 5.7 15.6 4.8 10.5 5.5 12.6 4.3 13.4-.8.5-14.5 8.5-30.5 17.7-15.9 9.3-41.8 24.3-57.5 33.4-15.6 9.1-28.6 16.4-28.7 16.3-.2-.2 9.1-40.1 20.7-88.7 18.1-75.9 21.6-89.6 25-96.6 16.8-35.5 44.2-50.8 76.3-42.7z"/><path d="M1815 829.4v58.4l60.3-.1c33.1 0 64.9-.4 70.6-.8 21.5-1.7 38.4-8.3 49.5-19.2 10.4-10.2 14.8-21.4 14.9-37.6.1-26-13-44.6-37.4-53-15.3-5.4-15.5-5.4-89.1-5.8l-68.8-.4v58.5zM1815 1077.5v70.6l75.3-.4c81.3-.5 82.4-.5 103.7-6.3 35.2-9.4 54-31.3 54-62.9 0-30.9-16.6-52.4-48.9-63.2-22.6-7.6-22.5-7.6-107.8-8l-76.3-.4v70.6zM1669.5 1541.2c-2.6 10.6-7.6 31.2-11.1 45.6-3.5 14.5-6.4 26.8-6.4 27.2 0 .8 110 28.5 110.4 27.8.2-.2 5.4-20.7 11.6-45.6 8.9-35.1 11.1-45.5 10.1-46.1-1.6-1-17-4.6-17.5-4-.1.2-4.3 16.1-9.1 35.4-4.9 19.2-9.2 35.4-9.6 35.9-.4.5-16.4-3-36.3-8-27.2-6.8-35.6-9.2-35.6-10.4 0-.8 3.8-17.3 8.5-36.5 4.7-19.3 8.5-35.3 8.5-35.6 0-.3-3.7-1.4-8.2-2.4-4.6-1-8.8-2-9.4-2.2-.8-.3-2.8 6.3-5.9 18.9zM1001.4 1531.2c-.4.5 0 1.5.7 2.2.8.7 5.8 5 11.1 9.5 20.4 17.4 36.6 39 43.7 58.1 6.4 17.3 8.7 38.5 5.7 52.3-5.7 25.6-24.8 40.9-51.2 41.1-8 0-9.7-.3-14.4-2.7-2.9-1.5-5.4-2.6-5.5-2.5-.1.2-2.8 3.8-6 8.1-6.5 8.7-6.5 8.8 1.3 13 10.4 5.6 25 7.2 39.6 4.2 28.9-6 50.3-27 57.2-56.3 2.1-8.8 2.1-28.1 0-39.3-6.8-36.5-28.2-62.1-69.7-83.5-8.9-4.6-11.7-5.6-12.5-4.2zM1275 1550.9c0 1 2.3 5.4 5.2 9.7 12.6 19.3 18.1 39 20.3 72.4 2.5 39.7-14.4 79.7-51.1 120.5-14.4 16-33.6 33.9-54.9 51-6 4.8-11.2 8.9-11.4 9.1-.2.2 2.2 2.9 5.4 6.1 16.3 16.4 31.6 41 42.5 68.3 18 45.2 20.9 93.5 7.9 132.4-23.1 69.2-97 120.5-196.9 136.5-23.1 3.7-34.9 4.5-63.5 4.5-30.1-.1-48.5-1.7-78.5-6.9-57.5-10.1-124.7-31.7-152.2-49.1-5.9-3.7-11.8-5.8-13-4.6-1.7 1.7 1.9 5.8 11.6 13.1 38.2 28.6 94.4 51.8 152.6 63 54.1 10.3 116 9.8 171.7-1.5 86.8-17.5 151.3-60.9 180.4-121.1 13.2-27.3 19.2-57.2 18.3-91.3-1.4-55.7-21.4-106.9-54.4-139.8-3.5-3.4-6.1-6.4-5.9-6.5.2-.2 4.8-3.4 10.3-7.2 42.3-29.2 77.2-71.9 92.4-113 7.3-19.6 10.2-34.8 10.2-53.7 0-35.6-11.5-63.9-35.1-86.4-7.8-7.3-11.9-9.2-11.9-5.5zM876.6 1565.6c-39.6 5.1-70.2 25.8-86.5 58.2-4.6 9-9.7 25.1-11.7 36.7-2.5 14.3-2.5 40.5 0 50 4 15.3 13.2 31.2 24.5 42.5 13.9 13.9 32.8 24.6 35.5 20.1.3-.5-2.4-3.7-6-7.2-16.9-16.3-29.7-39.3-33.4-60-1.4-7.6-1.4-26.1 0-36.3 3.2-22.6 13.1-42.9 27.6-56.7 20.3-19.1 46.5-27.9 80.1-26.7 19.5.8 29.3 4.1 43.7 14.7 3.7 2.8 7.2 4.8 7.7 4.5.5-.3.9-2.2.9-4.2 0-7.5-10.1-20.2-21.2-26.9-15.3-9.3-35-12.1-61.2-8.7z"/><path d="M909.6 1793.6c-13.9 2.7-33.6 10.8-47.5 19.5-23.8 15-44.9 37.6-56.5 60.5-24.7 49.1-15.2 108.7 24.2 150.5 12.9 13.7 32.5 28.7 43.6 33.3 10.4 4.3 8.7.5-6.3-14.3-13.4-13.1-20.1-21.5-29-36.3-36.7-61.3-30-122.5 19-170.8 16.8-16.6 37.1-29.1 55.9-34.4l8.5-2.4.3-3.6c.3-3.4.1-3.6-2.5-3.5-1.5 0-5.9.7-9.7 1.5zM1116.5 1832.6c-34.9 14.1-56.7 26.5-68.6 39.1-11.1 11.8-15.1 22.3-15.1 39.5 0 15.1 3.9 24.5 13 31.4l4.2 3.3-4.8 1.8c-3.7 1.4-7.3 1.8-17.7 1.7-18.9-.2-36.2-4.4-46.9-11.5-2.6-1.7-4.9-2.9-5.2-2.7-.9.9 4.3 13.7 7.1 17.3 3.6 4.8 11.3 10.8 17.9 13.9 8.8 4.1 17.8 5.9 30.6 5.8 17.4-.1 32.3-4.7 42.1-13 3.9-3.4 8.9-10.1 8.9-12.1 0-.5-2.5-2.1-5.5-3.5-7.3-3.3-14.8-10.6-18.2-17.5-2.5-5-2.8-6.7-2.8-15.6 0-9.1.3-10.6 3.1-16.5 7.5-16 27.2-28.5 73.1-46.5l17.2-6.7-6.6-7.4c-3.7-4.1-7.3-7.4-8.2-7.4-.9.1-8.8 3-17.6 6.6z"/></svg>